<svg width="47" height="47" viewBox="0 0 47 47" fill="none" xmlns="http://www.w3.org/2000/svg">
  <path d="M35.25 0H11.75C5.26065 0 0 5.26065 0 11.75V35.25C0 41.7393 5.26065 47 11.75 47H35.25C41.7393 47 47 41.7393 47 35.25V11.75C47 5.26065 41.7393 0 35.25 0Z" fill="#2D5A3D"/>
  <path opacity="0.95" d="M18.046 8.51524C14.6768 11.5278 11.7396 20.6353 13.8214 28.809C15.0421 34.6168 19.9191 38.2006 28.667 37.6961C35.6925 32.4595 37.1249 26.5793 34.3268 21.3456C30.6676 13.746 22.5635 8.65732 18.046 8.51524Z" fill="white"/>
  <path opacity="0.38" d="M20.6295 15.6133L28.667 37.6961" stroke="#2D5A3D" stroke-width="1.51071" stroke-linecap="round"/>
</svg>
