<svg width="86" height="82" viewBox="0 0 86 82" fill="none" xmlns="http://www.w3.org/2000/svg">
  <path d="M32.2506 18.274C36.1095 18.274 39.2377 15.3864 39.2377 11.8243C39.2377 8.26229 36.1095 5.37469 32.2506 5.37469C28.3918 5.37469 25.2635 8.26229 25.2635 11.8243C25.2635 15.3864 28.3918 18.274 32.2506 18.274Z" fill="#2C3820"/>
  <path d="M7.52707 21.4988C6.81044 17.9156 15.0516 15.7658 32.2506 15.0491C49.4497 15.7658 57.6908 17.9156 56.9742 21.4988C57.6908 25.7985 49.4497 27.9484 32.2506 27.9484C15.0516 27.9484 6.81044 25.7985 7.52707 21.4988Z" fill="#2C3820"/>
  <path d="M20.4263 39.7727C19.7097 36.1896 21.1429 33.6814 24.726 32.2481H59.1241C63.4238 32.9648 65.5737 35.1146 65.5737 38.6978L63.4238 67.7211C61.9906 72.0209 54.466 73.8124 40.8501 73.0958C27.9509 73.0958 21.8595 71.3042 22.5762 67.7211L20.4263 39.7727Z" fill="#2C3820"/>
  <path d="M20.4263 45.1474C14.6933 42.2809 10.3935 40.8477 7.52703 40.8477C3.94391 40.8477 2.15234 42.9975 2.15234 47.2973C2.15234 51.597 3.94391 53.7469 7.52703 53.7469C10.3935 53.7469 14.6933 52.3137 20.4263 49.4472V45.1474Z" fill="#2C3820"/>
  <path d="M65.5737 39.7727C74.1732 39.7727 78.473 43.7141 78.473 51.597C78.473 59.4799 74.1732 62.7047 65.5737 61.2715V54.8218C69.8735 54.1052 72.0234 53.0303 72.0234 51.597C72.0234 50.1638 69.8735 48.0139 65.5737 45.1474V39.7727Z" fill="#2C3820"/>
</svg>
