<svg preserveAspectRatio="none" width="100%" height="100%" overflow="visible" style="display: block;" viewBox="0 0 32 32" fill="none" xmlns="http://www.w3.org/2000/svg">
<g id="IcoPod" clip-path="url(#clip0_0_35)">
<path id="Vector" d="M16 32C16 25.1429 15.2381 19.8095 13.7143 16" stroke="var(--stroke-0, #4A7C59)" stroke-width="1.71429" stroke-linecap="round"/>
<path id="Vector_2" d="M13.7143 16C12.1905 12.1905 12.5714 8.7619 14.8571 5.71429" stroke="var(--stroke-0, #4A7C59)" stroke-width="1.71429" stroke-linecap="round"/>
<path id="Vector_3" d="M16 32C16 25.1429 17.1429 19.4286 19.4286 14.8571" stroke="var(--stroke-0, #4A7C59)" stroke-width="1.71429" stroke-linecap="round"/>
<path id="Vector_4" d="M14.8571 5.71429C12.5714 3.42857 12.5714 -7.15256e-07 14.8571 -7.15256e-07C18.2857 -7.15256e-07 19.4286 3.42857 17.1429 5.71429H14.8571Z" fill="var(--fill-0, #4A7C59)"/>
<path id="Vector_5" d="M11.4286 12.5714C8.57143 10.2857 8.57143 6.85714 10.8571 6.28571C14.2857 5.71429 16 9.14286 13.7143 12.5714H11.4286Z" fill="var(--fill-0, #4A7C59)"/>
<path id="Vector_6" d="M21.7143 13.7143C18.8571 11.4286 18.8571 8 21.1429 7.42857C24.5714 6.85714 26.2857 10.2857 24 13.7143H21.7143Z" fill="var(--fill-0, #4A7C59)"/>
</g>
<defs>
<clipPath id="clip0_0_35">
<rect width="32" height="32" fill="white"/>
</clipPath>
</defs>
</svg>
