<svg preserveAspectRatio="none" width="100%" height="100%" overflow="visible" style="display: block;" viewBox="0 0 22 22" fill="none" xmlns="http://www.w3.org/2000/svg">
<g id="IcoStarAnise">
<path id="Vector" d="M17.05 13.2C18.8725 13.2 20.35 12.215 20.35 11C20.35 9.78497 18.8725 8.8 17.05 8.8C15.2275 8.8 13.75 9.78497 13.75 11C13.75 12.215 15.2275 13.2 17.05 13.2Z" fill="var(--fill-0, #4A7C59)"/>
<path id="Vector_2" d="M13.7224 16.8336C15.0111 18.1224 16.7523 18.4706 17.6114 17.6114C18.4706 16.7523 18.1224 15.0111 16.8336 13.7224C15.5449 12.4336 13.8037 12.0854 12.9445 12.9445C12.0854 13.8037 12.4336 15.5449 13.7224 16.8336Z" fill="var(--fill-0, #4A7C59)"/>
<path id="Vector_3" d="M8.8 17.05C8.8 18.8725 9.78497 20.35 11 20.35C12.215 20.35 13.2 18.8725 13.2 17.05C13.2 15.2275 12.215 13.75 11 13.75C9.78497 13.75 8.8 15.2275 8.8 17.05Z" fill="var(--fill-0, #4A7C59)"/>
<path id="Vector_4" d="M5.16637 13.7224C3.87764 15.0111 3.5294 16.7523 4.38855 17.6114C5.2477 18.4706 6.98891 18.1224 8.27764 16.8336C9.56637 15.5449 9.91461 13.8037 9.05546 12.9445C8.1963 12.0854 6.4551 12.4336 5.16637 13.7224Z" fill="var(--fill-0, #4A7C59)"/>
<path id="Vector_5" d="M4.95 8.8C3.12746 8.8 1.65 9.78497 1.65 11C1.65 12.215 3.12746 13.2 4.95 13.2C6.77254 13.2 8.25 12.215 8.25 11C8.25 9.78497 6.77254 8.8 4.95 8.8Z" fill="var(--fill-0, #4A7C59)"/>
<path id="Vector_6" d="M8.27764 5.16637C6.98891 3.87764 5.24771 3.5294 4.38855 4.38855C3.5294 5.2477 3.87764 6.98891 5.16637 8.27764C6.4551 9.56637 8.1963 9.91461 9.05546 9.05546C9.91461 8.1963 9.56637 6.4551 8.27764 5.16637Z" fill="var(--fill-0, #4A7C59)"/>
<path id="Vector_7" d="M13.2 4.95C13.2 3.12746 12.215 1.65 11 1.65C9.78497 1.65 8.8 3.12746 8.8 4.95C8.8 6.77254 9.78497 8.25 11 8.25C12.215 8.25 13.2 6.77254 13.2 4.95Z" fill="var(--fill-0, #4A7C59)"/>
<path id="Vector_8" d="M16.8336 8.27764C18.1224 6.98891 18.4706 5.2477 17.6114 4.38855C16.7523 3.5294 15.0111 3.87764 13.7224 5.16637C12.4336 6.4551 12.0854 8.1963 12.9445 9.05546C13.8037 9.91461 15.5449 9.56637 16.8336 8.27764Z" fill="var(--fill-0, #4A7C59)"/>
<path id="Vector_9" d="M11 14.025C12.6707 14.025 14.025 12.6707 14.025 11C14.025 9.32934 12.6707 7.975 11 7.975C9.32934 7.975 7.975 9.32934 7.975 11C7.975 12.6707 9.32934 14.025 11 14.025Z" fill="var(--fill-0, #4A7C59)"/>
</g>
</svg>
